<svg width="250" height="50" viewBox="0 0 250 50" fill="none" xmlns="http://www.w3.org/2000/svg">
<g id="Group 125972">
<path id="Vector" d="M25.0649 50C11.2987 50 0 38.7013 0 25.0649C0 23.6364 1.16883 22.4675 2.5974 22.4675C4.02597 22.4675 5.19481 23.6364 5.19481 25.0649C5.19481 35.974 14.026 44.9351 25.0649 44.9351C35.974 44.9351 44.9351 36.1039 44.9351 25.0649C44.8052 14.026 35.974 5.19481 25.0649 5.19481C23.6364 5.19481 22.4675 4.02597 22.4675 2.5974C22.4675 1.16883 23.6364 0 25.0649 0C38.8312 0 50 11.1688 50 24.9351C50 38.7013 38.8312 50 25.0649 50Z" fill="#9D2600"/>
<path id="Vector_2" d="M25.0628 41.0393C15.7122 41.0393 8.17969 33.6367 8.17969 24.5458C8.17969 15.4548 15.7122 8.05225 25.0628 8.05225C34.4135 8.05225 41.9459 15.4548 41.9459 24.5458C41.9459 25.5847 41.8161 26.4938 41.6862 27.4029C41.4264 28.8315 40.1277 29.7406 38.6992 29.4808C37.2706 29.2211 36.3615 27.9224 36.6212 26.4938C36.7511 25.8445 36.7511 25.1951 36.7511 24.4159C36.7511 18.1821 31.5563 12.9873 25.0628 12.9873C18.5693 12.9873 13.3745 18.0522 13.3745 24.4159C13.3745 30.6496 18.5693 35.8445 25.0628 35.8445C25.842 35.8445 26.6212 35.7146 27.4005 35.5847C28.829 35.325 30.2576 36.2341 30.5173 37.5328C30.7771 38.9613 29.868 40.26 28.4394 40.5198C27.2706 41.0393 26.2316 41.0393 25.0628 41.0393Z" fill="#9D2600"/>
<path id="Vector_3" d="M23.8948 28.0514C23.8948 25.5839 26.1026 23.506 28.7 23.506C31.1676 23.506 33.1156 25.1943 33.5052 27.5319C33.765 26.7527 33.8948 25.9735 33.8948 25.0644C33.8948 20.6488 30.1286 17.0125 25.4533 17.0125C20.778 17.0125 17.0117 20.6488 17.0117 25.0644C17.0117 29.48 20.778 33.1164 25.4533 33.1164C26.4922 33.1164 27.4013 32.9865 28.3104 32.5969C25.8429 32.3371 23.8948 30.3891 23.8948 28.0514Z" fill="#9D2600"/>
<g id="Group 125971">
<g id="Group 125969">
<g id="Group">
<path id="Vector_4" d="M171.689 19.8706C169.611 19.8706 168.442 19.3512 167.403 18.9616L167.923 16.3642C169.092 16.8836 170.131 17.1434 171.299 17.1434C172.858 17.1434 173.377 16.8836 173.377 15.8447C173.377 14.8057 172.988 14.6758 170.91 14.2862C168.572 13.8966 167.273 12.9875 167.273 9.87065C167.273 7.01351 168.962 5.3252 172.208 5.3252C174.027 5.3252 175.195 5.58494 176.105 5.97455L175.715 8.70182C174.546 8.44208 173.897 8.18234 172.598 8.18234C171.04 8.18234 170.52 8.44208 170.52 9.35117C170.52 10.2603 170.78 10.52 172.728 10.9096C175.196 11.2992 176.754 12.2083 176.754 15.0655C176.884 18.1823 175.455 19.8706 171.689 19.8706Z" fill="#9D2600"/>
<path id="Vector_5" d="M182.598 19.8704C180.131 19.8704 179.092 18.4418 179.092 15.8444V10.5197H177.793V9.09117L181.04 5.19507H182.338V8.31195H184.676V10.5197H182.338V16.6236C182.338 17.273 182.598 17.5327 183.507 17.5327H184.936L185.066 19.3509C184.676 19.6107 183.767 19.8704 182.598 19.8704Z" fill="#9D2600"/>
<path id="Vector_6" d="M190.131 10.1304L191.299 8.44211C191.689 8.31224 192.208 8.18237 192.728 8.18237C193.377 8.18237 193.897 8.44211 194.027 8.57198L193.507 11.559C193.247 11.4291 192.728 11.2993 191.949 11.2993C191.299 11.2993 190.65 11.4291 190.131 11.559V19.7408H186.754V8.44211H189.092L190.131 10.1304Z" fill="#9D2600"/>
<path id="Vector_7" d="M200.519 12.5979V11.6888C200.519 11.1694 200.129 10.7798 199.22 10.7798C198.311 10.7798 197.142 11.0395 195.714 11.559L195.194 9.09144C196.103 8.57196 197.662 7.92261 199.61 7.92261C202.727 7.92261 203.896 9.22131 203.896 12.8577V17.2733C203.896 17.7927 204.025 17.7927 204.415 17.7927H205.064V19.0914C204.805 19.3512 204.155 19.7408 203.246 19.7408C202.727 19.7408 202.207 19.6109 201.818 19.6109L200.779 18.3122L199.999 19.3512C199.61 19.6109 198.831 19.8707 197.792 19.8707C196.363 19.8707 194.805 18.9616 194.805 16.6239C194.805 14.1564 195.844 13.3772 199.22 12.8577L200.519 12.5979ZM200.519 17.2733V14.4161L199.35 14.6759C198.181 14.9356 197.922 15.1953 197.922 16.2343V16.3642C197.922 17.2733 198.441 17.6629 199.22 17.6629C199.87 17.7927 200.259 17.533 200.519 17.2733Z" fill="#9D2600"/>
<path id="Vector_8" d="M210.391 19.8704C207.924 19.8704 206.885 18.4418 206.885 15.8444V10.5197H205.586V9.09117L208.833 5.19507H210.131V8.31195H212.469V10.5197H210.131V16.6236C210.131 17.273 210.391 17.5327 211.3 17.5327H212.729L212.859 19.3509C212.599 19.6107 211.56 19.8704 210.391 19.8704Z" fill="#9D2600"/>
<path id="Vector_9" d="M217.532 15.0655C217.532 16.7538 218.051 17.2733 219.61 17.2733C220.779 17.2733 221.818 16.8836 222.727 16.6239L223.116 18.9616C222.467 19.3512 221.038 19.8707 219.48 19.8707C215.973 19.8707 214.285 17.6629 214.285 13.8966C214.285 10.1304 216.103 7.92261 219.09 7.92261C222.337 7.92261 223.506 10.0005 223.506 13.3772V14.9356L217.532 15.0655ZM217.532 12.8577H220.389V12.3382C220.389 10.7797 219.999 10.2603 219.09 10.2603C217.922 10.3901 217.662 11.0395 217.532 12.8577Z" fill="#9D2600"/>
<path id="Vector_10" d="M231.56 8.44205L234.677 7.53296V10.0005H232.209L233.768 10.9096C233.898 11.1693 233.898 11.4291 233.898 11.9485C233.898 14.8057 231.82 15.7148 229.352 15.7148C228.573 15.7148 228.053 15.5849 227.534 15.455C227.404 15.5849 227.274 15.8446 227.274 16.1044C227.274 16.6239 227.534 16.8836 228.443 16.8836H230.911C233.378 16.8836 234.677 17.6628 234.677 20.0005C234.677 22.8576 231.95 23.6369 229.222 23.6369C226.235 23.6369 224.807 22.7278 224.807 21.0395C224.807 20.3901 225.066 20.0005 225.196 19.7408L226.235 19.2213C225.456 18.9615 224.937 18.3122 224.937 17.4031C224.937 16.7537 225.066 16.2343 225.326 15.9745L226.755 15.0654L225.456 14.1563C225.196 13.6369 224.937 12.9875 224.937 12.0784C224.937 9.22127 227.144 8.18231 229.612 8.18231C230.391 8.05244 231.04 8.18231 231.56 8.44205ZM227.664 19.3511C227.534 19.6109 227.534 19.8706 227.534 20.2602C227.534 21.0395 227.924 21.2992 229.352 21.2992C230.911 21.2992 231.56 20.9096 231.56 20.2602V20.0005C231.56 19.6109 231.3 19.3511 230.521 19.3511H227.664ZM229.352 13.6369C230.261 13.6369 230.651 13.2472 230.651 12.0784V11.5589C230.651 10.3901 230.131 10.2602 229.352 10.2602C228.443 10.2602 228.053 10.3901 228.053 11.5589V12.0784C228.053 13.2472 228.573 13.6369 229.352 13.6369Z" fill="#9D2600"/>
<path id="Vector_11" d="M237.793 7.27311C236.754 7.27311 235.975 6.62376 235.975 5.5848C235.975 4.41597 236.754 3.89648 237.793 3.89648C238.832 3.89648 239.611 4.54584 239.611 5.5848C239.611 6.62376 238.832 7.27311 237.793 7.27311ZM236.234 19.6108V8.31207H239.611V19.6108H236.234Z" fill="#9D2600"/>
<path id="Vector_12" d="M246.494 19.8707C243.247 19.8707 241.559 17.6629 241.559 13.8966C241.559 10.2603 243.247 7.92261 246.494 7.92261C248.052 7.92261 249.221 8.31222 249.87 8.70183L249.351 11.1694C248.572 10.9096 247.662 10.6499 246.753 10.6499C245.585 10.6499 245.065 11.0395 245.065 13.507V14.0265C245.065 16.494 245.585 17.1434 246.753 17.1434C247.792 17.1434 248.831 16.7538 249.611 16.494L249.87 18.9616C249.221 19.481 248.052 19.8707 246.494 19.8707Z" fill="#9D2600"/>
</g>
<path id="Vector_13" d="M156.494 11.5586L158.313 14.156C158.572 13.5067 158.702 12.5976 158.832 11.6885H161.559L161.3 13.1171C161.04 14.2859 160.65 15.4547 160.131 16.4937L162.339 19.6106H158.443L157.533 18.4418L156.754 19.4807C156.365 19.6106 155.585 19.8703 154.546 19.8703C151.559 19.8703 149.611 18.4418 149.611 15.5846C149.611 13.5067 150.78 12.4677 152.468 11.4288C151.43 10.0002 151.17 9.09111 151.17 7.92228C151.17 5.58462 152.988 4.54565 155.326 4.54565C157.274 4.54565 159.222 5.58462 159.222 7.92228C159.222 8.96124 158.832 9.74046 158.313 10.2599L156.494 11.5586ZM156.624 17.0132L154.027 13.3768C153.507 13.8963 153.248 14.4158 153.248 15.3249V15.7145C153.248 16.8833 154.027 17.4028 154.936 17.4028C155.715 17.4028 156.235 17.2729 156.624 17.0132ZM155.715 10.5197C156.494 9.87033 156.754 9.22098 156.754 8.44176C156.754 7.4028 156.235 7.14306 155.715 7.14306C155.196 7.14306 154.676 7.4028 154.676 8.18202C154.546 8.83137 154.806 9.22098 155.715 10.5197Z" fill="#9D2600"/>
<g id="Group_2">
<path id="Vector_14" d="M64.0269 19.8706C61.949 19.8706 60.7802 19.3512 59.7412 18.9616L60.2607 16.3642C61.4295 16.8836 62.4685 17.1434 63.6373 17.1434C65.1957 17.1434 65.7152 16.8836 65.7152 15.8447C65.7152 14.8057 65.3256 14.6758 63.2477 14.2862C60.91 13.8966 59.6113 12.9875 59.6113 9.87065C59.6113 7.01351 61.2996 5.3252 64.5464 5.3252C66.3646 5.3252 67.5334 5.58494 68.4425 5.97455L68.1828 8.83169C67.0139 8.57195 66.3646 8.31221 65.0659 8.31221C63.5074 8.31221 62.9879 8.57195 62.9879 9.48104C62.9879 10.3901 63.2477 10.6499 65.1957 11.0395C67.6633 11.4291 69.2217 12.3382 69.2217 15.1953C69.2217 18.1823 67.7931 19.8706 64.0269 19.8706Z" fill="#9D2600"/>
<path id="Vector_15" d="M75.5855 19.8707C72.3387 19.8707 70.6504 17.6629 70.6504 13.8966C70.6504 10.2603 72.3387 7.92261 75.5855 7.92261C77.1439 7.92261 78.3127 8.31222 78.9621 8.70183L78.4426 11.1694C77.6634 10.9096 76.7543 10.6499 75.8452 10.6499C74.6764 10.6499 74.1569 11.0395 74.1569 13.507V14.0265C74.1569 16.494 74.6764 17.1434 75.8452 17.1434C76.8842 17.1434 77.9231 16.7538 78.7023 16.494L78.9621 18.9616C78.3127 19.481 77.1439 19.8707 75.5855 19.8707Z" fill="#9D2600"/>
<path id="Vector_16" d="M82.4666 7.27311C81.4277 7.27311 80.6484 6.62376 80.6484 5.5848C80.6484 4.41597 81.4277 3.89648 82.4666 3.89648C83.5056 3.89648 84.2848 4.54584 84.2848 5.5848C84.2848 6.62376 83.5056 7.27311 82.4666 7.27311ZM80.7783 19.6108V8.31207H84.1549V19.6108H80.7783Z" fill="#9D2600"/>
<path id="Vector_17" d="M89.61 15.0655C89.61 16.7538 90.1295 17.2733 91.688 17.2733C92.8568 17.2733 93.8957 16.8836 94.8048 16.6239L95.1944 18.9616C94.5451 19.3512 93.1165 19.8707 91.5581 19.8707C88.0516 19.8707 86.3633 17.6629 86.3633 13.8966C86.3633 10.1304 88.1815 7.92261 91.1685 7.92261C94.4152 7.92261 95.5841 10.0005 95.5841 13.3772V14.9356L89.61 15.0655ZM89.61 12.8577H92.4672V12.3382C92.4672 10.7797 92.0776 10.2603 91.1685 10.2603C89.9996 10.3901 89.7399 11.0395 89.61 12.8577Z" fill="#9D2600"/>
<path id="Vector_18" d="M100.78 9.74079L101.949 8.31222C102.468 8.05248 103.118 7.92261 103.637 7.92261C105.715 7.92261 106.754 9.35118 106.754 11.6888V19.481H103.507V11.4291C103.507 10.9096 103.118 10.6499 102.468 10.6499C101.949 10.6499 101.559 10.7798 100.91 10.9096V19.481H97.5332V8.18235H99.8709L100.78 9.74079Z" fill="#9D2600"/>
<path id="Vector_19" d="M113.118 19.8704C110.65 19.8704 109.611 18.4418 109.611 15.8444V10.5197H108.312V9.09117L111.559 5.19507H112.858V8.31195H115.196V10.5197H112.858V16.6236C112.858 17.273 113.118 17.5327 114.027 17.5327H115.455L115.585 19.3509C115.196 19.6107 114.287 19.8704 113.118 19.8704Z" fill="#9D2600"/>
<path id="Vector_20" d="M119.092 7.27311C118.053 7.27311 117.273 6.62376 117.273 5.5848C117.273 4.41597 118.053 3.89648 119.092 3.89648C120.131 3.89648 120.91 4.54584 120.91 5.5848C120.91 6.62376 120.131 7.27311 119.092 7.27311ZM117.533 19.6108V8.31207H120.91V19.6108H117.533Z" fill="#9D2600"/>
<path id="Vector_21" d="M123.896 10.5199H122.598V8.31207H123.896V8.1822C123.896 5.5848 125.065 4.15622 127.403 4.15622C128.442 4.15622 129.221 4.54584 129.611 4.67571L129.481 6.49389H128.702C127.663 6.49389 127.273 6.62376 127.273 7.40298V8.31207H129.481V10.5199H127.273V19.6108H123.896V10.5199ZM132.468 7.27311C131.429 7.27311 130.52 6.62376 130.52 5.5848C130.52 4.41597 131.429 3.89648 132.468 3.89648C133.507 3.89648 134.416 4.54584 134.416 5.5848C134.416 6.62376 133.507 7.27311 132.468 7.27311ZM130.779 19.6108V8.31207H134.156V19.6108H130.779Z" fill="#9D2600"/>
<path id="Vector_22" d="M141.041 19.8707C137.794 19.8707 136.105 17.6629 136.105 13.8966C136.105 10.2603 137.794 7.92261 141.041 7.92261C142.599 7.92261 143.768 8.31222 144.417 8.70183L143.898 11.1694C143.118 10.9096 142.209 10.6499 141.3 10.6499C140.131 10.6499 139.612 11.0395 139.612 13.507V14.0265C139.612 16.494 140.131 17.1434 141.3 17.1434C142.339 17.1434 143.378 16.7538 144.157 16.494L144.417 18.9616C143.768 19.481 142.729 19.8707 141.041 19.8707Z" fill="#9D2600"/>
</g>
</g>
<g id="Group 125970">
<path id="Vector_23" d="M65.3256 44.1551C61.2997 44.1551 59.8711 41.0382 59.8711 36.8824C59.8711 32.7265 61.4295 29.7395 65.4555 29.7395C66.8841 29.7395 67.923 29.9992 68.8321 30.5187L68.5724 32.207C67.2737 31.8174 66.4945 31.5577 65.3256 31.5577C63.5075 31.5577 62.2088 32.5966 62.2088 36.4927V37.1421C62.2088 41.1681 63.3776 42.4668 65.4555 42.4668C66.7542 42.4668 67.5334 42.0772 68.7023 41.6876L69.2217 43.246C68.0529 43.7655 66.8841 44.1551 65.3256 44.1551Z" fill="#9D2600"/>
<path id="Vector_24" d="M74.8052 44.1561C72.0779 44.1561 70.2598 42.0782 70.2598 38.3119C70.2598 34.5457 72.0779 32.4678 74.8052 32.4678C77.5325 32.4678 79.2208 34.5457 79.2208 38.1821C79.2208 42.0782 77.5325 44.1561 74.8052 44.1561ZM74.8052 42.7275C76.3637 42.7275 77.2727 41.6886 77.2727 38.5717V38.1821C77.2727 34.9353 76.4935 34.0262 74.8052 34.0262C73.2468 34.0262 72.3377 34.9353 72.3377 38.0522V38.4418C72.3377 41.6886 73.2468 42.7275 74.8052 42.7275Z" fill="#9D2600"/>
<path id="Vector_25" d="M83.6356 34.1554L84.6745 32.9865C85.194 32.7268 85.8433 32.5969 86.7524 32.5969C88.5706 32.5969 89.7395 33.6359 89.7395 36.1034V43.8956H87.7914V35.8437C87.7914 34.545 87.142 34.1554 86.1031 34.1554C85.0641 34.1554 84.5446 34.4151 83.6356 34.9346V43.8956H81.6875V32.7268H82.8563L83.6356 34.1554Z" fill="#9D2600"/>
<path id="Vector_26" d="M95.194 44.1554C93.6356 44.1554 92.5966 43.7658 91.9473 43.506L92.207 42.0774C92.9862 42.3372 93.8953 42.7268 95.0642 42.7268C96.3629 42.7268 97.1421 42.3372 97.1421 41.0385C97.1421 39.7398 96.6226 39.6099 94.6745 39.0904C93.1161 38.7008 91.9473 37.9216 91.9473 35.8437C91.9473 33.6359 93.3758 32.5969 95.5836 32.5969C96.8823 32.5969 97.9213 32.8567 98.5706 33.2463L98.3109 34.545C97.5317 34.2852 96.7525 34.0255 95.7135 34.0255C94.4148 34.0255 93.7654 34.4151 93.7654 35.5839C93.7654 36.7528 94.4148 36.8826 96.1031 37.4021C98.0512 37.9216 99.0901 38.7008 99.0901 40.7787C99.0901 42.8567 97.7914 44.1554 95.194 44.1554Z" fill="#9D2600"/>
<path id="Vector_27" d="M107.274 41.8185V32.7275H109.222V43.8964H108.053L107.404 42.5977L106.495 43.7665C105.975 44.0262 105.326 44.1561 104.417 44.1561C102.599 44.1561 101.43 43.1171 101.43 40.6496V32.8574H103.378V40.9094C103.378 42.3379 104.027 42.7275 104.936 42.7275C105.845 42.5977 106.624 42.3379 107.274 41.8185Z" fill="#9D2600"/>
<path id="Vector_28" d="M112.469 43.8962V28.5715H114.417V43.8962H112.469Z" fill="#9D2600"/>
<path id="Vector_29" d="M120.388 44.1561C118.7 44.1561 118.051 43.247 118.051 41.2989V34.2859H116.752V32.8574H118.181L119.09 29.8704H119.999V32.8574H122.466V34.2859H119.999V41.6885C119.999 42.4678 120.258 42.5976 121.038 42.5976H122.596L122.726 43.6366C122.077 43.8963 121.297 44.1561 120.388 44.1561Z" fill="#9D2600"/>
<path id="Vector_30" d="M125.844 30.9084C125.194 30.9084 124.545 30.389 124.545 29.7396C124.545 29.0903 125.194 28.4409 125.844 28.4409C126.493 28.4409 127.142 28.9604 127.142 29.7396C127.142 30.5188 126.493 30.9084 125.844 30.9084ZM124.805 43.8955V32.7266H126.753V43.8955H124.805Z" fill="#9D2600"/>
<path id="Vector_31" d="M131.948 34.1554L132.987 32.9865C133.506 32.7268 134.156 32.5969 135.065 32.5969C136.883 32.5969 138.052 33.6359 138.052 36.1034V43.8956H136.104V35.8437C136.104 34.545 135.455 34.1554 134.416 34.1554C133.377 34.1554 132.857 34.4151 131.948 34.9346V43.8956H130V32.7268H131.169L131.948 34.1554Z" fill="#9D2600"/>
<path id="Vector_32" d="M147.014 33.246L149.482 32.3369V34.1551H147.014L148.443 35.0642C148.572 35.3239 148.572 35.7135 148.572 36.1031C148.572 38.8304 146.624 39.7395 144.546 39.7395C143.897 39.7395 143.248 39.6096 142.728 39.3499C142.469 39.6096 142.209 39.8694 142.209 40.3889C142.209 41.0382 142.598 41.4278 143.637 41.4278H146.105C148.313 41.4278 149.482 42.3369 149.482 44.1551C149.482 46.6226 147.274 47.6616 144.546 47.6616C141.819 47.6616 140.391 46.6226 140.391 44.9343C140.391 44.1551 140.78 43.6356 140.91 43.3759L142.079 42.7265C141.3 42.4668 140.65 41.9473 140.65 40.9083C140.65 40.259 140.91 39.7395 141.04 39.4798L142.209 38.8304L140.91 38.0512C140.65 37.5317 140.391 36.8824 140.391 35.9733C140.391 33.246 142.598 32.3369 144.546 32.3369C145.456 32.5967 146.235 32.7265 147.014 33.246ZM142.598 42.9863C142.079 43.3759 141.819 43.8954 141.819 44.6746C141.819 45.7135 142.598 46.233 144.417 46.233C146.495 46.233 147.533 45.3239 147.533 44.4148V44.285C147.533 43.6356 147.144 42.9863 145.975 42.9863H142.598ZM144.546 38.4408C145.975 38.4408 146.624 37.7915 146.624 36.3629V36.1031C146.624 34.8044 145.975 34.0252 144.546 34.0252C143.118 34.0252 142.339 34.6746 142.339 36.1031V36.3629C142.339 37.7915 142.988 38.4408 144.546 38.4408Z" fill="#9D2600"/>
<path id="Vector_33" d="M159.74 44.1551C157.662 44.1551 156.493 43.6356 155.584 43.1161L155.974 41.5577C157.142 42.0772 158.052 42.4668 159.48 42.4668C161.298 42.4668 162.207 41.9473 162.207 40.259C162.207 38.8304 161.688 38.4408 159.61 37.7914C157.142 37.1421 155.844 36.3629 155.844 33.6356C155.844 31.1681 157.402 29.7395 160.129 29.7395C161.818 29.7395 162.857 29.9992 163.766 30.3889L163.506 31.9473C162.337 31.5577 161.688 31.4278 160.259 31.4278C158.571 31.4278 157.922 31.9473 157.922 33.3759C157.922 34.8044 158.311 35.194 160.519 35.7135C162.987 36.3629 164.415 37.272 164.415 39.8694C164.285 42.7265 162.727 44.1551 159.74 44.1551Z" fill="#9D2600"/>
<path id="Vector_34" d="M168.182 38.9613C168.182 41.6886 168.962 42.5976 170.91 42.5976C171.949 42.5976 172.858 42.3379 173.767 41.8184L174.027 43.247C173.377 43.6366 172.078 44.1561 170.65 44.1561C167.663 44.1561 165.975 42.208 165.975 38.3119C165.975 34.4158 167.793 32.4678 170.39 32.4678C172.988 32.4678 174.416 34.4158 174.416 37.6626V38.8314H168.182V38.9613ZM168.182 37.5327H172.728V37.1431C172.728 34.8054 172.078 33.8963 170.65 33.8963C169.091 34.0262 168.182 34.6756 168.182 37.5327Z" fill="#9D2600"/>
<path id="Vector_35" d="M178.961 34.2852L180.13 32.9865C180.649 32.7268 181.169 32.5969 181.688 32.5969C182.337 32.5969 182.857 32.7268 183.117 32.8567L182.727 34.6748C182.337 34.545 181.948 34.4151 181.169 34.4151C180.259 34.4151 179.74 34.8047 179.091 35.1943V43.8956H177.143V32.7268H178.311L178.961 34.2852Z" fill="#9D2600"/>
<path id="Vector_36" d="M187.792 43.8964L184.285 32.7275H186.363L188.311 39.6107L188.831 43.1172L189.35 39.6107L191.298 32.7275H193.116L189.61 43.8964H187.792Z" fill="#9D2600"/>
<path id="Vector_37" d="M196.363 30.9084C195.714 30.9084 195.064 30.389 195.064 29.7396C195.064 29.0903 195.714 28.4409 196.363 28.4409C197.013 28.4409 197.662 28.9604 197.662 29.7396C197.662 30.5188 197.013 30.9084 196.363 30.9084ZM195.324 43.8955V32.7266H197.272V43.8955H195.324Z" fill="#9D2600"/>
<path id="Vector_38" d="M204.285 44.1561C201.428 44.1561 199.869 42.208 199.869 38.3119C199.869 34.4158 201.428 32.4678 204.285 32.4678C205.454 32.4678 206.622 32.7275 207.272 33.1171L207.012 34.5457C206.103 34.286 205.324 34.0262 204.415 34.0262C202.856 34.0262 201.947 34.6756 201.947 37.9223V38.3119C201.947 41.5587 202.856 42.4678 204.415 42.4678C205.454 42.4678 206.103 42.208 207.142 41.6886L207.402 43.1171C206.622 43.7665 205.583 44.1561 204.285 44.1561Z" fill="#9D2600"/>
<path id="Vector_39" d="M210.78 38.9613C210.78 41.6886 211.559 42.5976 213.507 42.5976C214.546 42.5976 215.455 42.3379 216.364 41.8184L216.624 43.247C215.975 43.6366 214.676 44.1561 213.248 44.1561C210.261 44.1561 208.572 42.208 208.572 38.3119C208.572 34.4158 210.39 32.4678 212.988 32.4678C215.585 32.4678 217.014 34.4158 217.014 37.6626V38.8314H210.78V38.9613ZM210.78 37.5327H215.326V37.1431C215.326 34.8054 214.676 33.8963 213.248 33.8963C211.819 34.0262 210.91 34.6756 210.78 37.5327Z" fill="#9D2600"/>
<path id="Vector_40" d="M222.21 44.1554C220.651 44.1554 219.612 43.7658 218.963 43.506L219.223 42.0774C220.002 42.3372 220.911 42.7268 222.08 42.7268C223.378 42.7268 224.158 42.3372 224.158 41.0385C224.158 39.7398 223.638 39.6099 221.69 39.0904C220.132 38.7008 218.963 37.9216 218.963 35.8437C218.963 33.6359 220.391 32.5969 222.599 32.5969C223.898 32.5969 224.937 32.8567 225.586 33.2463L225.327 34.6748C224.547 34.4151 223.768 34.1554 222.729 34.1554C221.43 34.1554 220.781 34.545 220.781 35.7138C220.781 36.8826 221.43 37.0125 223.119 37.532C225.067 38.0515 226.106 38.8307 226.106 40.9086C225.976 42.8567 224.807 44.1554 222.21 44.1554Z" fill="#9D2600"/>
</g>
</g>
</g>
</svg>
