<svg xmlns="http://www.w3.org/2000/svg" fill="none" viewBox="0 0 182.47 48">
<path d="M59.8145 12.2041H67.009C68.3013 12.2041 69.4338 12.3859 70.3921 12.7569C71.3505 13.1206 72.1418 13.637 72.7661 14.299C73.3905 14.9609 73.8479 15.7465 74.131 16.6484C74.4432 17.5576 74.5956 18.5469 74.5956 19.6234C74.5956 20.6999 74.4432 21.6674 74.131 22.5984C73.8406 23.5076 73.3905 24.3005 72.7661 24.9842C72.1636 25.668 71.3868 26.2062 70.4284 26.599C69.4701 26.9918 68.3303 27.1882 67.009 27.1882H62.7983V36.1132H59.8145V12.2041ZM66.7549 24.9842C68.461 24.9842 69.6589 24.5914 70.3486 23.8059C71.0455 22.9985 71.394 21.6746 71.394 19.8416V19.3979C71.394 17.6086 71.031 16.372 70.3123 15.6883C69.5936 14.9754 68.3812 14.6263 66.6823 14.6263H62.7983V24.9842H66.7549Z" fill="black"/>
<path d="M88.7382 16.9395H91.5115V36.1133H89.9288L88.8108 33.8366L87.2281 35.7496C86.8216 35.946 86.3134 36.1133 85.7181 36.266C85.1228 36.4406 84.4258 36.5206 83.6345 36.5206C82.1462 36.5206 80.9338 36.0551 80.0045 35.124C79.0898 34.1711 78.6396 32.6146 78.6396 30.4615V16.9467H81.4057V30.9052C81.4057 32.1999 81.667 33.0946 82.197 33.5892C82.7488 34.0766 83.453 34.3239 84.3169 34.3239C85.297 34.3239 86.1174 34.1857 86.7635 33.9166C87.4314 33.6256 88.0921 33.2183 88.7382 32.7018V16.9467V16.9395Z" fill="black"/>
<path d="M111.178 17.4199C111.541 17.2235 112.006 17.0417 112.579 16.8671C113.153 16.6707 113.814 16.5762 114.561 16.5762C116.093 16.5762 117.298 17.0417 118.155 17.9727C119.041 18.9038 119.484 20.4458 119.484 22.5989V36.1137H116.718V22.1552C116.718 20.9041 116.463 20.0458 115.963 19.5875C115.483 19.122 114.786 18.8892 113.879 18.8892C112.971 18.8892 112.238 19.0493 111.614 19.3693C111.019 19.6603 110.38 20.0531 109.704 20.5477V36.1209H106.938V22.1625C106.938 20.9114 106.677 20.0531 106.147 19.5948C105.617 19.1293 104.935 18.8965 104.1 18.8965C103.265 18.8965 102.481 19.042 101.835 19.3402C101.21 19.6094 100.564 19.9876 99.8891 20.4822V36.1282H97.123V16.9544H98.7057L99.7874 19.3039L101.406 17.4272C101.791 17.2308 102.256 17.049 102.808 16.8744C103.381 16.678 104.056 16.5834 104.819 16.5834C105.516 16.5834 106.111 16.6562 106.619 16.8017C107.149 16.9471 107.635 17.1581 108.093 17.4272L109.385 19.4493L111.186 17.4272L111.178 17.4199Z" fill="black"/>
<path d="M133.743 22.7802C133.743 22.2419 133.692 21.7401 133.598 21.2745C133.503 20.809 133.336 20.4162 133.097 20.0962C132.879 19.7543 132.559 19.4852 132.124 19.2888C131.717 19.0924 131.187 18.9978 130.541 18.9978C129.626 18.9978 128.733 19.1215 127.841 19.3615C126.977 19.5797 126.055 19.8634 125.067 20.2053L124.639 18.0013C125.503 17.6085 126.41 17.2812 127.376 17.0121C128.334 16.7211 129.423 16.5684 130.65 16.5684C132.734 16.5684 134.222 17.143 135.108 18.2923C136.022 19.4197 136.473 21.2454 136.473 23.7622V33.1309C136.473 33.6691 136.567 34.0401 136.763 34.2292C136.952 34.4038 137.264 34.4838 137.699 34.4838H138.418L138.491 35.9895C138.324 36.1131 138.084 36.2222 137.772 36.3168C137.46 36.4405 137.09 36.4987 136.654 36.4987C136.153 36.4987 135.645 36.4041 135.144 36.2077L133.888 34.1492L132.233 36.0259C131.87 36.2004 131.427 36.3314 130.904 36.4332C130.403 36.5568 129.837 36.615 129.213 36.615C128.472 36.615 127.761 36.5205 127.093 36.3241C126.447 36.1277 125.873 35.8222 125.365 35.4076C124.886 34.9639 124.501 34.4038 124.211 33.7201C123.92 33.0072 123.782 32.1416 123.782 31.1087C123.782 30.1559 123.913 29.3339 124.174 28.6502C124.436 27.9374 124.835 27.3554 125.358 26.8899C125.909 26.4244 126.606 26.0607 127.441 25.7916C128.305 25.5224 129.314 25.326 130.461 25.2024L133.736 24.9114V22.7802H133.743ZM133.743 26.6717L130.65 26.999C129.162 27.1736 128.095 27.5373 127.448 28.0974C126.802 28.6356 126.476 29.5667 126.476 30.8905V31.1451C126.476 32.3453 126.752 33.2036 127.303 33.7128C127.877 34.2292 128.741 34.4838 129.895 34.4838C130.904 34.4838 131.696 34.302 132.269 33.931C132.872 33.5673 133.358 33.1454 133.743 32.6799V26.6572V26.6717Z" fill="black"/>
<path d="M146.418 36.6296C145.17 36.6296 144.102 36.4914 143.217 36.2222C142.353 35.9749 141.649 35.7058 141.097 35.4148L141.489 33.2836C142.113 33.5527 142.817 33.8073 143.609 34.0546C144.422 34.302 145.3 34.4183 146.237 34.4183C147.391 34.4183 148.284 34.1856 148.938 33.72C149.584 33.2327 149.91 32.3744 149.91 31.1524C149.91 30.5923 149.852 30.1268 149.729 29.7558C149.605 29.3921 149.395 29.0793 149.083 28.8393C148.771 28.5702 148.342 28.3374 147.79 28.141C147.239 27.9228 146.52 27.69 145.634 27.4427C144.959 27.2463 144.342 27.0281 143.761 26.7808C143.209 26.5117 142.73 26.1698 142.324 25.7552C141.939 25.3406 141.627 24.8387 141.387 24.2495C141.169 23.6385 141.061 22.9039 141.061 22.0456C141.061 20.2125 141.591 18.8378 142.643 17.9286C143.725 17.0193 145.162 16.5684 146.963 16.5684C148.066 16.5684 149.025 16.6775 149.838 16.8957C150.68 17.1139 151.37 17.3758 151.921 17.6667L151.486 19.7616C151.123 19.6379 150.782 19.5288 150.44 19.4342C150.128 19.3106 149.801 19.216 149.468 19.1433C149.134 19.0706 148.763 19.0051 148.349 18.9614C147.965 18.9105 147.536 18.8887 147.057 18.8887C145.932 18.8887 145.075 19.0997 144.502 19.5143C143.928 19.907 143.638 20.6999 143.638 21.9001C143.638 22.4383 143.71 22.882 143.856 23.2239C144.001 23.5658 144.219 23.864 144.502 24.104C144.814 24.3223 145.22 24.5187 145.721 24.6932C146.222 24.8678 146.839 25.0496 147.558 25.246C148.4 25.4933 149.126 25.7625 149.751 26.0534C150.375 26.3444 150.89 26.7153 151.297 27.1518C151.704 27.5955 152.016 28.1337 152.234 28.7666C152.451 29.4067 152.56 30.1631 152.56 31.0433C152.56 32.6581 152.045 33.9964 151.014 35.0439C150.005 36.0986 148.473 36.6223 146.411 36.6223L146.418 36.6296Z" fill="black"/>
<path d="M158.767 36.1132H154.811L162.433 12.2041H166.753L174.238 36.1132H169.454L168.27 31.9235H160.03L158.774 36.1132H158.767ZM165.134 20.9763L164.307 16.4593L163.297 20.9763L160.923 28.8393H167.399L165.134 20.9763Z" fill="black"/>
<path d="M177.904 12.2041H182.471V36.1132H177.904V12.2041Z" fill="black"/>
<path d="M21.6999 20.7011C21.6999 14.6201 16.8357 9.68848 10.8463 9.68848C9.0386 9.68848 7.32526 10.1395 5.82971 10.9396C5.82246 10.9396 5.80793 10.9469 5.79341 10.9541C2.49741 12.7144 0.217798 16.1404 0.0145202 20.1264C0.00726025 20.3155 0 20.5047 0 20.6938C0 20.8829 0.00726025 21.072 0.0145202 21.2611C0.203278 25.1672 2.42481 28.5495 5.61918 30.3316C5.68452 30.368 5.74985 30.4043 5.82245 30.4407C7.32526 31.2336 9.03134 31.6918 10.8536 31.6918C16.8503 31.6918 21.7072 26.7602 21.7072 20.6865L21.6999 20.7011Z" fill="black"/>
<path d="M47.531 27.7933C46.7034 32.4776 44.3802 36.9074 41.2367 40.2606C36.6193 45.1705 30.1072 48 23.4136 48C20.6766 48 16.2988 47.2217 15.2752 43.563C14.8977 42.2319 14.5565 39.3587 16.8942 37.2711C19.6529 34.8053 23.4789 34.3907 26.0634 32.9868C32.2271 29.6263 33.8025 23.9673 33.7589 20.2867C33.7081 15.4714 31.5882 12.06 29.1925 9.83422C25.2939 6.2264 19.8925 5.28807 14.8759 6.59009C13.1408 7.04107 11.2605 7.783 8.65415 9.46325C8.55977 9.52144 8.47265 9.58691 8.3565 9.58691C8.11692 9.58691 7.9209 9.39051 7.9209 9.15048C7.9209 9.08501 7.93542 9.01228 7.97172 8.95408C12.1171 3.04046 18.9632 0 25.2068 0C35.661 0 41.9917 6.84467 44.4238 10.6416C47.4657 15.3914 48.5764 21.8724 47.531 27.8006V27.7933Z" fill="black"/>
</svg>